<mxfile host="app.diagrams.net" modified="2023-05-06T13:38:25.767Z" agent="Mozilla/5.0 (Macintosh; Intel Mac OS X 10_15_7) AppleWebKit/537.36 (KHTML, like Gecko) Chrome/112.0.0.0 Safari/537.36" etag="-bNRDQ3IkBAcJhGy1OXF" version="21.1.5" type="github">
  <diagram id="C5RBs43oDa-KdzZeNtuy" name="Page-1">
    <mxGraphModel dx="1886" dy="1508" grid="1" gridSize="10" guides="1" tooltips="1" connect="1" arrows="1" fold="1" page="1" pageScale="1" pageWidth="827" pageHeight="1169" math="0" shadow="0">
      <root>
        <mxCell id="WIyWlLk6GJQsqaUBKTNV-0" />
        <mxCell id="WIyWlLk6GJQsqaUBKTNV-1" parent="WIyWlLk6GJQsqaUBKTNV-0" />
        <mxCell id="nyhhi8Qxf3TurSGXHPNd-0" value="Users" style="swimlane;fontStyle=0;childLayout=stackLayout;horizontal=1;startSize=30;horizontalStack=0;resizeParent=1;resizeParentMax=0;resizeLast=0;collapsible=1;marginBottom=0;whiteSpace=wrap;html=1;" vertex="1" parent="WIyWlLk6GJQsqaUBKTNV-1">
          <mxGeometry x="-130" y="430" width="280" height="120" as="geometry" />
        </mxCell>
        <mxCell id="nyhhi8Qxf3TurSGXHPNd-1" value="id INTEGER PRIMARY KEY" style="text;strokeColor=none;fillColor=none;align=left;verticalAlign=middle;spacingLeft=4;spacingRight=4;overflow=hidden;points=[[0,0.5],[1,0.5]];portConstraint=eastwest;rotatable=0;whiteSpace=wrap;html=1;" vertex="1" parent="nyhhi8Qxf3TurSGXHPNd-0">
          <mxGeometry y="30" width="280" height="30" as="geometry" />
        </mxCell>
        <mxCell id="nyhhi8Qxf3TurSGXHPNd-2" value="username VARCHAR(30) NOT NULL UNIQUE" style="text;strokeColor=none;fillColor=none;align=left;verticalAlign=middle;spacingLeft=4;spacingRight=4;overflow=hidden;points=[[0,0.5],[1,0.5]];portConstraint=eastwest;rotatable=0;whiteSpace=wrap;html=1;" vertex="1" parent="nyhhi8Qxf3TurSGXHPNd-0">
          <mxGeometry y="60" width="280" height="30" as="geometry" />
        </mxCell>
        <mxCell id="nyhhi8Qxf3TurSGXHPNd-3" value="password VARCHAR(30) NOT NULL" style="text;strokeColor=none;fillColor=none;align=left;verticalAlign=middle;spacingLeft=4;spacingRight=4;overflow=hidden;points=[[0,0.5],[1,0.5]];portConstraint=eastwest;rotatable=0;whiteSpace=wrap;html=1;" vertex="1" parent="nyhhi8Qxf3TurSGXHPNd-0">
          <mxGeometry y="90" width="280" height="30" as="geometry" />
        </mxCell>
        <mxCell id="nyhhi8Qxf3TurSGXHPNd-16" value="Posts" style="swimlane;fontStyle=0;childLayout=stackLayout;horizontal=1;startSize=26;fillColor=none;horizontalStack=0;resizeParent=1;resizeParentMax=0;resizeLast=0;collapsible=1;marginBottom=0;html=1;" vertex="1" parent="WIyWlLk6GJQsqaUBKTNV-1">
          <mxGeometry x="320" y="90" width="450" height="240" as="geometry" />
        </mxCell>
        <mxCell id="nyhhi8Qxf3TurSGXHPNd-17" value="&lt;div&gt;&amp;nbsp; id INTEGER PRIMARY KEY,&lt;/div&gt;&lt;div&gt;&lt;br&gt;&lt;/div&gt;&lt;div&gt;&amp;nbsp; user_id INTEGER NOT NULL,&lt;/div&gt;&lt;div&gt;&lt;br&gt;&lt;/div&gt;&lt;div&gt;&amp;nbsp; text TEXT NOT NULL,&lt;/div&gt;&lt;div&gt;&lt;br&gt;&lt;/div&gt;&lt;div&gt;&amp;nbsp; upvotes INTEGER DEFAULT 0,&lt;/div&gt;&lt;div&gt;&lt;br&gt;&lt;/div&gt;&lt;div&gt;&amp;nbsp; downvotes INTEGER DEFAULT 0,&lt;/div&gt;&lt;div&gt;&lt;br&gt;&lt;/div&gt;&lt;div&gt;&amp;nbsp; timestamp DATETIME DEFAULT (datetime(&#39;now&#39;,&#39;localtime&#39;)),&lt;/div&gt;&lt;div&gt;&lt;br&gt;&lt;/div&gt;&lt;div&gt;&amp;nbsp; FOREIGN KEY(user_id) REFERENCES Users(id) ON DELETE CASCADE&lt;/div&gt;&lt;div&gt;&lt;br&gt;&lt;/div&gt;" style="text;strokeColor=none;fillColor=none;align=left;verticalAlign=top;spacingLeft=4;spacingRight=4;overflow=hidden;rotatable=0;points=[[0,0.5],[1,0.5]];portConstraint=eastwest;whiteSpace=wrap;html=1;" vertex="1" parent="nyhhi8Qxf3TurSGXHPNd-16">
          <mxGeometry y="26" width="450" height="214" as="geometry" />
        </mxCell>
        <mxCell id="nyhhi8Qxf3TurSGXHPNd-20" value="Comments" style="swimlane;fontStyle=0;childLayout=stackLayout;horizontal=1;startSize=26;fillColor=none;horizontalStack=0;resizeParent=1;resizeParentMax=0;resizeLast=0;collapsible=1;marginBottom=0;html=1;" vertex="1" parent="WIyWlLk6GJQsqaUBKTNV-1">
          <mxGeometry x="320" y="430" width="450" height="360" as="geometry" />
        </mxCell>
        <mxCell id="nyhhi8Qxf3TurSGXHPNd-21" value="&lt;div&gt;&lt;div&gt;&amp;nbsp; id INTEGER PRIMARY KEY,&lt;/div&gt;&lt;div&gt;&lt;br&gt;&lt;/div&gt;&lt;div&gt;&amp;nbsp; user_id INTEGER NOT NULL,&lt;/div&gt;&lt;div&gt;&lt;br&gt;&lt;/div&gt;&lt;div&gt;&amp;nbsp; post_id INTEGER NOT NULL,&lt;/div&gt;&lt;div&gt;&lt;br&gt;&lt;/div&gt;&lt;div&gt;&amp;nbsp; parent_comment_id INTEGER,&lt;/div&gt;&lt;div&gt;&lt;br&gt;&lt;/div&gt;&lt;div&gt;&amp;nbsp; text TEXT NOT NULL,&lt;/div&gt;&lt;div&gt;&lt;br&gt;&lt;/div&gt;&lt;div&gt;&amp;nbsp; upvotes INTEGER DEFAULT 0,&lt;/div&gt;&lt;div&gt;&lt;br&gt;&lt;/div&gt;&lt;div&gt;&amp;nbsp; downvotes INTEGER DEFAULT 0,&lt;/div&gt;&lt;div&gt;&lt;br&gt;&lt;/div&gt;&lt;div&gt;&amp;nbsp; timestamp DATETIME DEFAULT (datetime(&#39;now&#39;,&#39;localtime&#39;)),&lt;/div&gt;&lt;div&gt;&lt;br&gt;&lt;/div&gt;&lt;div&gt;&amp;nbsp; FOREIGN KEY(user_id) REFERENCES Users(id) ON DELETE CASCADE,&lt;/div&gt;&lt;div&gt;&lt;br&gt;&lt;/div&gt;&lt;div&gt;&amp;nbsp; FOREIGN KEY(post_id) REFERENCES Posts(id) ON DELETE CASCADE,&lt;/div&gt;&lt;div&gt;&lt;br&gt;&lt;/div&gt;&lt;div&gt;&amp;nbsp; FOREIGN KEY(parent_comment_id) REFERENCES Comments(id) ON DELETE CASCADE&lt;/div&gt;&lt;/div&gt;" style="text;strokeColor=none;fillColor=none;align=left;verticalAlign=top;spacingLeft=4;spacingRight=4;overflow=hidden;rotatable=0;points=[[0,0.5],[1,0.5]];portConstraint=eastwest;whiteSpace=wrap;html=1;" vertex="1" parent="nyhhi8Qxf3TurSGXHPNd-20">
          <mxGeometry y="26" width="450" height="334" as="geometry" />
        </mxCell>
        <mxCell id="nyhhi8Qxf3TurSGXHPNd-22" value="Follows" style="swimlane;fontStyle=0;childLayout=stackLayout;horizontal=1;startSize=30;horizontalStack=0;resizeParent=1;resizeParentMax=0;resizeLast=0;collapsible=1;marginBottom=0;whiteSpace=wrap;html=1;" vertex="1" parent="WIyWlLk6GJQsqaUBKTNV-1">
          <mxGeometry x="-370" y="50" width="360" height="220" as="geometry" />
        </mxCell>
        <mxCell id="nyhhi8Qxf3TurSGXHPNd-23" value="&lt;div&gt;&amp;nbsp; follower_id INTEGER NOT NULL,&lt;/div&gt;&lt;div&gt;&lt;br&gt;&lt;/div&gt;&lt;div&gt;&amp;nbsp; followee_id INTEGER NOT NULL,&lt;/div&gt;&lt;div&gt;&lt;br&gt;&lt;/div&gt;&lt;div&gt;&amp;nbsp; PRIMARY KEY(follower_id, followee_id),&lt;/div&gt;&lt;div&gt;&lt;br&gt;&lt;/div&gt;&lt;div&gt;&amp;nbsp; FOREIGN KEY(follower_id) REFERENCES Users(id) ON DELETE CASCADE,&lt;/div&gt;&lt;div&gt;&lt;br&gt;&lt;/div&gt;&lt;div&gt;&amp;nbsp; FOREIGN KEY(followee_id) REFERENCES Users(id) ON DELETE CASCADE&lt;/div&gt;" style="text;strokeColor=none;fillColor=none;align=left;verticalAlign=middle;spacingLeft=4;spacingRight=4;overflow=hidden;points=[[0,0.5],[1,0.5]];portConstraint=eastwest;rotatable=0;whiteSpace=wrap;html=1;" vertex="1" parent="nyhhi8Qxf3TurSGXHPNd-22">
          <mxGeometry y="30" width="360" height="190" as="geometry" />
        </mxCell>
        <mxCell id="nyhhi8Qxf3TurSGXHPNd-26" value="Sessions" style="swimlane;fontStyle=0;childLayout=stackLayout;horizontal=1;startSize=30;horizontalStack=0;resizeParent=1;resizeParentMax=0;resizeLast=0;collapsible=1;marginBottom=0;whiteSpace=wrap;html=1;" vertex="1" parent="WIyWlLk6GJQsqaUBKTNV-1">
          <mxGeometry x="-370" y="640" width="360" height="220" as="geometry" />
        </mxCell>
        <mxCell id="nyhhi8Qxf3TurSGXHPNd-27" value="&lt;div&gt;&amp;nbsp; id INTEGER PRIMARY KEY,&lt;/div&gt;&lt;div&gt;&lt;br&gt;&lt;/div&gt;&lt;div&gt;&amp;nbsp; user_id INTEGER NOT NULL,&lt;/div&gt;&lt;div&gt;&lt;br&gt;&lt;/div&gt;&lt;div&gt;&amp;nbsp; timestamp DATETIME DEFAULT (datetime(&#39;now&#39;,&#39;localtime&#39;)),&lt;/div&gt;&lt;div&gt;&lt;br&gt;&lt;/div&gt;&lt;div&gt;&amp;nbsp; FOREIGN KEY(user_id) REFERENCES Users(id) ON DELETE CASCADE&lt;/div&gt;" style="text;strokeColor=none;fillColor=none;align=left;verticalAlign=middle;spacingLeft=4;spacingRight=4;overflow=hidden;points=[[0,0.5],[1,0.5]];portConstraint=eastwest;rotatable=0;whiteSpace=wrap;html=1;" vertex="1" parent="nyhhi8Qxf3TurSGXHPNd-26">
          <mxGeometry y="30" width="360" height="190" as="geometry" />
        </mxCell>
        <mxCell id="nyhhi8Qxf3TurSGXHPNd-28" value="" style="edgeStyle=orthogonalEdgeStyle;rounded=0;orthogonalLoop=1;jettySize=auto;html=1;endArrow=ERmany;endFill=0;exitX=1;exitY=0.5;exitDx=0;exitDy=0;" edge="1" parent="WIyWlLk6GJQsqaUBKTNV-1" source="nyhhi8Qxf3TurSGXHPNd-2" target="nyhhi8Qxf3TurSGXHPNd-17">
          <mxGeometry relative="1" as="geometry">
            <Array as="points">
              <mxPoint x="290" y="505" />
              <mxPoint x="290" y="223" />
            </Array>
          </mxGeometry>
        </mxCell>
        <mxCell id="nyhhi8Qxf3TurSGXHPNd-29" value="1:M" style="text;html=1;align=center;verticalAlign=middle;resizable=0;points=[];autosize=1;strokeColor=none;fillColor=none;" vertex="1" parent="WIyWlLk6GJQsqaUBKTNV-1">
          <mxGeometry x="240" y="360" width="40" height="30" as="geometry" />
        </mxCell>
        <mxCell id="nyhhi8Qxf3TurSGXHPNd-33" style="edgeStyle=orthogonalEdgeStyle;rounded=0;orthogonalLoop=1;jettySize=auto;html=1;exitX=-0.003;exitY=0.869;exitDx=0;exitDy=0;startArrow=ERmany;startFill=0;endArrow=ERmany;endFill=0;exitPerimeter=0;" edge="1" parent="WIyWlLk6GJQsqaUBKTNV-1" source="nyhhi8Qxf3TurSGXHPNd-1" target="nyhhi8Qxf3TurSGXHPNd-22">
          <mxGeometry relative="1" as="geometry" />
        </mxCell>
        <mxCell id="nyhhi8Qxf3TurSGXHPNd-34" value="M:M" style="text;html=1;align=center;verticalAlign=middle;resizable=0;points=[];autosize=1;strokeColor=none;fillColor=none;" vertex="1" parent="WIyWlLk6GJQsqaUBKTNV-1">
          <mxGeometry x="-190" y="390" width="50" height="30" as="geometry" />
        </mxCell>
        <mxCell id="nyhhi8Qxf3TurSGXHPNd-35" style="edgeStyle=orthogonalEdgeStyle;rounded=0;orthogonalLoop=1;jettySize=auto;html=1;exitX=1;exitY=0.5;exitDx=0;exitDy=0;entryX=0.997;entryY=0.425;entryDx=0;entryDy=0;entryPerimeter=0;endArrow=ERmany;endFill=0;" edge="1" parent="WIyWlLk6GJQsqaUBKTNV-1" source="nyhhi8Qxf3TurSGXHPNd-3" target="nyhhi8Qxf3TurSGXHPNd-27">
          <mxGeometry relative="1" as="geometry" />
        </mxCell>
        <mxCell id="nyhhi8Qxf3TurSGXHPNd-36" style="edgeStyle=orthogonalEdgeStyle;rounded=0;orthogonalLoop=1;jettySize=auto;html=1;exitX=1;exitY=0.5;exitDx=0;exitDy=0;entryX=0.5;entryY=0;entryDx=0;entryDy=0;endArrow=ERmany;endFill=0;" edge="1" parent="WIyWlLk6GJQsqaUBKTNV-1" source="nyhhi8Qxf3TurSGXHPNd-17" target="nyhhi8Qxf3TurSGXHPNd-20">
          <mxGeometry relative="1" as="geometry" />
        </mxCell>
        <mxCell id="nyhhi8Qxf3TurSGXHPNd-38" value="1:M" style="text;html=1;align=center;verticalAlign=middle;resizable=0;points=[];autosize=1;strokeColor=none;fillColor=none;" vertex="1" parent="WIyWlLk6GJQsqaUBKTNV-1">
          <mxGeometry x="110" y="605" width="40" height="30" as="geometry" />
        </mxCell>
        <mxCell id="nyhhi8Qxf3TurSGXHPNd-40" value="1:M" style="text;html=1;align=center;verticalAlign=middle;resizable=0;points=[];autosize=1;strokeColor=none;fillColor=none;" vertex="1" parent="WIyWlLk6GJQsqaUBKTNV-1">
          <mxGeometry x="590" y="345" width="40" height="30" as="geometry" />
        </mxCell>
      </root>
    </mxGraphModel>
  </diagram>
</mxfile>
